<?xml version="1.0" encoding="UTF-8"?>
<svg width="32px" height="32px" viewBox="0 0 32 32" version="1.1" xmlns="http://www.w3.org/2000/svg" xmlns:xlink="http://www.w3.org/1999/xlink">
    <!-- Generator: Sketch 58 (84663) - https://sketch.com -->
    <title>behance</title>
    <desc>Created with Sketch.</desc>
    <g id="behance" stroke="none" stroke-width="1" fill="none" fill-rule="evenodd">
        <g id="behance-(2)-copy" transform="translate(0.000000, 6.000000)" fill="#FFFFFF" fill-rule="nonzero">
            <path d="M12.9150813,8.94331027 C12.9150813,8.94331027 15.9421601,8.72168754 15.9421601,5.22097452 C15.9421601,1.72001457 13.4656243,0.0114824029 10.3285621,0.0114824029 L0.00570887105,0.0114824029 L0.00570887105,19.5753363 L10.3285621,19.5753363 C10.3285621,19.5753363 16.6302919,19.7716483 16.6302919,13.800984 C16.6302919,13.8010458 16.9050313,8.94331027 12.9150813,8.94331027 Z M9.58553252,3.48873675 L10.3285621,3.48873675 C10.3285621,3.48873675 11.7317425,3.48873675 11.7317425,5.52427047 C11.7317425,7.55955725 10.9065227,7.85464266 9.97050573,7.85464266 L4.55408913,7.85464266 L4.55408913,3.48873675 L9.58553252,3.48873675 L9.58553252,3.48873675 Z M10.0368588,16.0982054 L4.55408913,16.0982054 L4.55408913,10.8699978 L10.3285621,10.8699978 C10.3285621,10.8699978 12.4199369,10.8429689 12.4199369,13.5567669 C12.4199369,15.8450987 10.8578846,16.0809201 10.0368588,16.0982054 L10.0368588,16.0982054 Z M25.0347266,4.98910406 C17.4057812,4.98910406 17.41257,12.506127 17.41257,12.506127 C17.41257,12.506127 16.8891316,19.9845667 25.0347266,19.9845667 C25.0347266,19.9845667 31.8226494,20.3670048 31.8226494,14.7822356 L28.3317248,14.7822356 C28.3317248,14.7822356 28.4481558,16.8853673 25.1511575,16.8853673 C25.1511575,16.8853673 21.6596696,17.1161266 21.6596696,13.4816991 L31.9390803,13.4816991 C31.9390803,13.4816374 33.0638281,4.98910406 25.0347266,4.98910406 Z M21.6212975,10.8700081 C21.6212975,10.8700081 22.0475849,7.85458092 25.1122846,7.85458092 C28.1763584,7.85458092 28.137998,10.8700081 28.137998,10.8700081 L21.6212975,10.8700081 Z M28.9511874,3.57318797 L20.7666569,3.57318797 L20.7666569,1.16404403 L28.9511874,1.16404403 L28.9511874,3.57318797 Z" id="Shape"></path>
        </g>
    </g>
</svg>