<?xml version="1.0" encoding="UTF-8"?>
<svg width="24px" height="15px" viewBox="0 0 24 15" version="1.1" xmlns="http://www.w3.org/2000/svg" xmlns:xlink="http://www.w3.org/1999/xlink">
    <!-- Generator: Sketch 59.1 (86144) - https://sketch.com -->
    <title>Shape</title>
    <desc>Created with Sketch.</desc>
    <g id="Page-1" stroke="none" stroke-width="1" fill="none" fill-rule="evenodd">
        <g id="Ana-Copy" transform="translate(-1266.000000, -37.000000)" fill="#7E7C88" fill-rule="nonzero">
            <path d="M1275.68203,43.6988709 C1275.68203,43.6988709 1277.95234,43.5326539 1277.95234,40.9071191 C1277.95234,38.2813991 1276.09494,37 1273.74214,37 L1266,37 L1266,51.6728904 L1273.74214,51.6728904 C1273.74214,51.6728904 1278.46844,51.8201245 1278.46844,47.3421262 C1278.46844,47.3421725 1278.67449,43.6988709 1275.68203,43.6988709 Z M1273.18487,39.6079408 L1273.74214,39.6079408 C1273.74214,39.6079408 1274.79453,39.6079408 1274.79453,41.134591 C1274.79453,42.6610561 1274.17561,42.8823702 1273.4736,42.8823702 L1269.41129,42.8823702 L1269.41129,39.6079408 L1273.18487,39.6079408 L1273.18487,39.6079408 Z M1273.52336,49.0650423 L1269.41129,49.0650423 L1269.41129,45.1438865 L1273.74214,45.1438865 C1273.74214,45.1438865 1275.31067,45.1236149 1275.31067,47.1589634 C1275.31067,48.8752122 1274.13913,49.0520783 1273.52336,49.0650423 L1273.52336,49.0650423 Z M1284.77176,40.7332162 C1279.05005,40.7332162 1279.05515,46.3709835 1279.05515,46.3709835 C1279.05515,46.3709835 1278.66257,51.9798132 1284.77176,51.9798132 C1284.77176,51.9798132 1289.86271,52.2666418 1289.86271,48.0780649 L1287.24451,48.0780649 C1287.24451,48.0780649 1287.33184,49.6554137 1284.85909,49.6554137 C1284.85909,49.6554137 1282.24047,49.8284831 1282.24047,47.1026626 L1289.95003,47.1026626 C1289.95003,47.1026163 1290.79359,40.7332162 1284.77176,40.7332162 Z M1282.21169,45.1438943 C1282.21169,45.1438943 1282.53141,42.8823239 1284.82993,42.8823239 C1287.12799,42.8823239 1287.09922,45.1438943 1287.09922,45.1438943 L1282.21169,45.1438943 Z M1287.70911,39.6712792 L1281.57071,39.6712792 L1281.57071,37.8644212 L1287.70911,37.8644212 L1287.70911,39.6712792 Z" id="Shape"></path>
        </g>
    </g>
</svg>