<?xml version="1.0" encoding="UTF-8"?>
<svg width="32px" height="32px" viewBox="0 0 32 32" version="1.1" xmlns="http://www.w3.org/2000/svg" xmlns:xlink="http://www.w3.org/1999/xlink">
    <!-- Generator: Sketch 58 (84663) - https://sketch.com -->
    <title>instagram</title>
    <desc>Created with Sketch.</desc>
    <g id="instagram" stroke="none" stroke-width="1" fill="none" fill-rule="evenodd">
        <g id="instagram-(1)-copy" transform="translate(6.000000, 6.000000)" fill="#FFFFFF" fill-rule="nonzero">
            <path d="M8.97222303,0.00083090379 L11.027777,0.000699708455 C12.8284184,0.00367346939 13.2082143,0.0171428571 14.1225,0.06 C15.1866667,0.109166667 15.9125,0.2775 16.55,0.525 C17.2091667,0.779166667 17.7658333,1.1225 18.3216667,1.67833333 C18.8766667,2.23416667 19.22,2.7925 19.475,3.45 C19.7216667,4.08666667 19.89,4.81333333 19.94,5.8775 C19.9875,6.94416667 20,7.28333333 20,10 C20,12.7166667 19.99,13.0558333 19.94,14.1225 C19.8908333,15.1866667 19.7216667,15.9125 19.475,16.55 C19.2208333,17.2091667 18.8766667,17.7658333 18.3216667,18.3216667 C17.7658333,18.8766667 17.2066667,19.22 16.55,19.475 C15.9125,19.7216667 15.1866667,19.89 14.1225,19.94 C13.0558333,19.9875 12.7166667,20 10,20 C7.28333333,20 6.94416667,19.99 5.8775,19.94 C4.81333333,19.8908333 4.08833333,19.7216667 3.45,19.475 C2.79166667,19.2208333 2.23416667,18.8766667 1.67833333,18.3216667 C1.1225,17.7658333 0.78,17.2066667 0.525,16.55 C0.2775,15.9125 0.11,15.1866667 0.06,14.1225 C0.0192857143,13.2082143 0.00428571429,12.8284184 0.00083090379,11.027777 L0.000699708455,8.97222303 C0.00367346939,7.17158163 0.0171428571,6.79178571 0.06,5.8775 C0.109166667,4.8125 0.2775,4.0875 0.525,3.45 C0.779166667,2.79166667 1.1225,2.23416667 1.67833333,1.67833333 C2.23416667,1.1225 2.7925,0.78 3.45,0.525 C4.0875,0.2775 4.8125,0.11 5.8775,0.06 C6.79178571,0.0192857143 7.17158163,0.00428571429 8.97222303,0.00083090379 L11.027777,0.000699708455 Z M10,4.865 C7.1625,4.865 4.865,7.165 4.865,10 C4.865,12.8375 7.165,15.135 10,15.135 C12.8375,15.135 15.135,12.835 15.135,10 C15.135,7.1625 12.835,4.865 10,4.865 Z M15.3383333,3.46333237 C14.6766667,3.46333237 14.1383333,4.00083333 14.1383333,4.6625 C14.1383333,5.32416667 14.6758333,5.8625 15.3383333,5.8625 C16,5.8625 16.5383333,5.325 16.5383333,4.6625 C16.5383333,4.00083333 15.9991667,3.4625 15.3383333,3.46333237 Z M10,13.3333333 C8.15833333,13.3333333 6.66666667,11.8416667 6.66666667,10 C6.66666667,8.15833333 8.15833333,6.66666667 10,6.66666667 C11.8416667,6.66666667 13.3333333,8.15833333 13.3333333,10 C13.3333333,11.8416667 11.8416667,13.3333333 10,13.3333333 Z" id="Shape"></path>
        </g>
    </g>
</svg>