<?xml version="1.0" encoding="UTF-8"?>
<svg width="16px" height="15px" viewBox="0 0 16 15" version="1.1" xmlns="http://www.w3.org/2000/svg" xmlns:xlink="http://www.w3.org/1999/xlink">
    <!-- Generator: Sketch 59.1 (86144) - https://sketch.com -->
    <title>Shape</title>
    <desc>Created with Sketch.</desc>
    <g id="Page-1" stroke="none" stroke-width="1" fill="none" fill-rule="evenodd">
        <g id="Ana-Copy" transform="translate(-1382.000000, -37.000000)" fill="#7E7C88" fill-rule="nonzero">
            <path d="M1390.6635,37.0007989 C1391.89248,37.0035161 1392.18101,37.0140217 1392.84188,37.045 C1393.64,37.081875 1394.18438,37.208125 1394.6625,37.39375 C1395.15687,37.584375 1395.57437,37.841875 1395.99125,38.25875 C1396.4075,38.675625 1396.665,39.094375 1396.85625,39.5875 C1397.04125,40.065 1397.1675,40.61 1397.205,41.408125 C1397.24062,42.208125 1397.25,42.4625 1397.25,44.5 C1397.25,46.5375 1397.2425,46.791875 1397.205,47.591875 C1397.16812,48.39 1397.04125,48.934375 1396.85625,49.4125 C1396.66563,49.906875 1396.4075,50.324375 1395.99125,50.74125 C1395.57437,51.1575 1395.155,51.415 1394.6625,51.60625 C1394.18438,51.79125 1393.64,51.9175 1392.84188,51.955 C1392.04187,51.990625 1391.7875,52 1389.75,52 C1387.7125,52 1387.45813,51.9925 1386.65812,51.955 C1385.86,51.918125 1385.31625,51.79125 1384.8375,51.60625 C1384.34375,51.415625 1383.92563,51.1575 1383.50875,50.74125 C1383.09188,50.324375 1382.835,49.905 1382.64375,49.4125 C1382.45813,48.934375 1382.3325,48.39 1382.295,47.591875 C1382.26557,46.9310054 1382.25405,46.6424811 1382.25094,45.4134972 L1382.2508,43.5865028 C1382.25352,42.3575189 1382.26402,42.0689946 1382.295,41.408125 C1382.33188,40.609375 1382.45813,40.065625 1382.64375,39.5875 C1382.83437,39.09375 1383.09188,38.675625 1383.50875,38.25875 C1383.92563,37.841875 1384.34437,37.585 1384.8375,37.39375 C1385.31562,37.208125 1385.85938,37.0825 1386.65812,37.045 C1387.31899,37.0155707 1387.60752,37.0040548 1388.8365,37.0009394 Z M1389.75,40.64875 C1387.62188,40.64875 1385.89875,42.37375 1385.89875,44.5 C1385.89875,46.628125 1387.62375,48.35125 1389.75,48.35125 C1391.87812,48.35125 1393.60125,46.62625 1393.60125,44.5 C1393.60125,42.371875 1391.87625,40.64875 1389.75,40.64875 Z M1393.75375,39.5974993 C1393.2575,39.5974993 1392.85375,40.000625 1392.85375,40.496875 C1392.85375,40.993125 1393.25688,41.396875 1393.75375,41.396875 C1394.25,41.396875 1394.65375,40.99375 1394.65375,40.496875 C1394.65375,40.000625 1394.24938,39.596875 1393.75375,39.5974993 Z M1389.75,47 C1388.36875,47 1387.25,45.88125 1387.25,44.5 C1387.25,43.11875 1388.36875,42 1389.75,42 C1391.13125,42 1392.25,43.11875 1392.25,44.5 C1392.25,45.88125 1391.13125,47 1389.75,47 Z" id="Shape"></path>
        </g>
    </g>
</svg>