<?xml version="1.0" encoding="UTF-8"?>
<svg width="32px" height="32px" viewBox="0 0 32 32" version="1.1" xmlns="http://www.w3.org/2000/svg" xmlns:xlink="http://www.w3.org/1999/xlink">
    <!-- Generator: Sketch 58 (84663) - https://sketch.com -->
    <title>linkedin</title>
    <desc>Created with Sketch.</desc>
    <g id="linkedin" stroke="none" stroke-width="1" fill="none" fill-rule="evenodd">
        <g id="linkedin-icon-1-copy" transform="translate(6.000000, 6.000000)" fill="#FFFFFF" fill-rule="nonzero">
            <path d="M0,2.32322857 C0,1.64981552 0.236493243,1.09426086 0.709459459,0.656564595 C1.18242568,0.218848131 1.79730405,0 2.55405405,0 C3.29730405,0 3.89864189,0.215474399 4.35810811,0.646463602 C4.83107432,1.09090733 5.06756757,1.6700175 5.06756757,2.38383453 C5.06756757,3.03029813 4.83784459,3.56900433 4.37837838,4 C3.90541216,4.44443726 3.28378378,4.66665912 2.51351351,4.66665912 L2.49324324,4.66665912 C1.74999324,4.66665912 1.14865541,4.44443726 0.689189189,4 C0.229722973,3.55554981 0,2.99662142 0,2.32322857 Z M0.263513514,19.9999677 L0.263513514,6.50503999 L4.76351351,6.50503999 L4.76351351,19.9999677 L0.263513514,19.9999677 Z M7.25675676,19.9999677 L11.7567568,19.9999677 L11.7567568,12.4646263 C11.7567568,11.9932331 11.8108176,11.6295974 11.9189189,11.373719 C12.1081014,10.9158005 12.3952703,10.528589 12.7804054,10.2121047 C13.1655405,9.89560017 13.6486419,9.737358 14.2297297,9.737358 C15.74325,9.737358 16.5,10.7541846 16.5,12.7878581 L16.5,19.9999677 L21,19.9999677 L21,12.2626064 C21,10.2693369 20.5270338,8.7575616 19.5810811,7.72726024 C18.6351284,6.69695887 17.3851419,6.18180819 15.8310811,6.18180819 C14.0878378,6.18180819 12.7297297,6.92928173 11.7567568,8.42422881 L11.7567568,8.46463278 L11.7364865,8.46463278 L11.7567568,8.42422881 L11.7567568,6.50503999 L7.25675676,6.50503999 C7.28377703,6.93600899 7.2972973,8.27606743 7.2972973,10.5252355 C7.2972973,12.7743834 7.28377703,15.9326207 7.25675676,19.9999677 Z" id="Shape"></path>
        </g>
    </g>
</svg>