<?xml version="1.0" encoding="UTF-8"?>
<svg width="17px" height="15px" viewBox="0 0 17 15" version="1.1" xmlns="http://www.w3.org/2000/svg" xmlns:xlink="http://www.w3.org/1999/xlink">
    <!-- Generator: Sketch 59.1 (86144) - https://sketch.com -->
    <title>Shape</title>
    <desc>Created with Sketch.</desc>
    <g id="Page-1" stroke="none" stroke-width="1" fill="none" fill-rule="evenodd">
        <g id="Ana-Copy" transform="translate(-1312.000000, -37.000000)" fill="#7E7C88" fill-rule="nonzero">
            <path d="M1312.5,38.7424214 C1312.5,38.2373616 1312.67737,37.8206956 1313.03209,37.4924234 C1313.38682,37.1641361 1313.84798,37 1314.41554,37 C1314.97298,37 1315.42398,37.1616058 1315.76858,37.4848477 C1316.12331,37.8181805 1316.30068,38.2525131 1316.30068,38.7878759 C1316.30068,39.2727236 1316.12838,39.6767532 1315.78378,40 C1315.42906,40.3333279 1314.96284,40.5 1314.38514,40.5 L1314.36993,40.5 C1313.81249,40.5 1313.36149,40.3333279 1313.01689,40 C1312.67229,39.6666624 1312.5,39.2474661 1312.5,38.7424214 Z M1312.69764,51.9999758 L1312.69764,41.87878 L1316.07264,41.87878 L1316.07264,51.9999758 L1312.69764,51.9999758 Z M1317.94257,51.9999758 L1321.31757,51.9999758 L1321.31757,46.3484697 C1321.31757,45.9949249 1321.35811,45.722198 1321.43919,45.5302892 C1321.58108,45.1868504 1321.79645,44.8964418 1322.0853,44.6590785 C1322.37416,44.4217001 1322.73648,44.3030185 1323.1723,44.3030185 C1324.30744,44.3030185 1324.875,45.0656385 1324.875,46.5908936 L1324.875,51.9999758 L1328.25,51.9999758 L1328.25,46.1969548 C1328.25,44.7020027 1327.89528,43.5681712 1327.18581,42.7954452 C1326.47635,42.0227192 1325.53886,41.6363561 1324.37331,41.6363561 C1323.06588,41.6363561 1322.0473,42.1969613 1321.31757,43.3181716 L1321.31757,43.3484746 L1321.30236,43.3484746 L1321.31757,43.3181716 L1321.31757,41.87878 L1317.94257,41.87878 C1317.96283,42.2020067 1317.97297,43.2070506 1317.97297,44.8939266 C1317.97297,46.5807875 1317.96283,48.9494655 1317.94257,51.9999758 Z" id="Shape"></path>
        </g>
    </g>
</svg>